HIERARCHY
ROOT root
{
	OFFSET 0.000000 0.000000 0.000000
	CHANNELS 6 Xposition Yposition Zposition Zrotation Yrotation Xrotation
	JOINT lhip
	{
		OFFSET 0.058581 -0.082280 -0.017664
		CHANNELS 3 Zrotation Yrotation Xrotation
		JOINT lknee
		{
			OFFSET 0.043451 -0.386469 0.008037
			CHANNELS 3 Zrotation Yrotation Xrotation
			JOINT lankle
			{
				OFFSET -0.014790 -0.426874 -0.037428
				CHANNELS 3 Zrotation Yrotation Xrotation
				JOINT ltoe
				{
					OFFSET 0.041054 -0.060286 0.122042
					CHANNELS 3 Zrotation Yrotation Xrotation
					End Site
					{
						OFFSET 0.000000 0.000000 0.000000
					}
				}
			}
		}
	}
	JOINT rhip
	{
		OFFSET -0.060310 -0.090513 -0.013543
		CHANNELS 3 Zrotation Yrotation Xrotation
		JOINT rknee
		{
			OFFSET -0.043257 -0.383688 -0.004843
			CHANNELS 3 Zrotation Yrotation Xrotation
			JOINT rankle
			{
				OFFSET 0.019056 -0.420046 -0.034562
				CHANNELS 3 Zrotation Yrotation Xrotation
				JOINT rtoe
				{
					OFFSET -0.034840 -0.062106 0.130323
					CHANNELS 3 Zrotation Yrotation Xrotation
					End Site
					{
						OFFSET 0.000000 0.000000 0.000000
					}
				}
			}
		}
	}
	JOINT lowerback
	{
		OFFSET 0.004439 0.124404 -0.038385
		CHANNELS 3 Zrotation Yrotation Xrotation
		JOINT upperback
		{
			OFFSET 0.004488 0.137956 0.026820
			CHANNELS 3 Zrotation Yrotation Xrotation
			JOINT chest
			{
				OFFSET -0.002265 0.056032 0.002855
				CHANNELS 3 Zrotation Yrotation Xrotation
				JOINT lowerneck
				{
					OFFSET -0.013390 0.211636 -0.033468
					CHANNELS 3 Zrotation Yrotation Xrotation
					JOINT upperneck
					{
						OFFSET 0.010113 0.088937 0.050410
						CHANNELS 3 Zrotation Yrotation Xrotation
						End Site
						{
							OFFSET 0.000000 0.000000 0.000000
						}
					}
				}
				JOINT lclavicle
				{
					OFFSET 0.071702 0.114000 -0.018898
					CHANNELS 3 Zrotation Yrotation Xrotation
					JOINT lshoulder
					{
						OFFSET 0.122921 0.045205 -0.019046
						CHANNELS 3 Zrotation Yrotation Xrotation
						JOINT lelbow
						{
							OFFSET 0.255332 -0.015649 -0.022946
							CHANNELS 3 Zrotation Yrotation Xrotation
							JOINT lwrist
							{
								OFFSET 0.265709 0.012698 -0.007375
								CHANNELS 3 Zrotation Yrotation Xrotation
								End Site
								{
									OFFSET 0.000000 0.000000 0.000000
								}
							}
						}
					}
				}
				JOINT rclavicle
				{
					OFFSET -0.082954 0.112472 -0.023707
					CHANNELS 3 Zrotation Yrotation Xrotation
					JOINT rshoulder
					{
						OFFSET -0.113228 0.046853 -0.008472
						CHANNELS 3 Zrotation Yrotation Xrotation
						JOINT relbow
						{
							OFFSET -0.260127 -0.014369 -0.031269
							CHANNELS 3 Zrotation Yrotation Xrotation
							JOINT rwrist
							{
								OFFSET -0.269108 0.006794 -0.006027
								CHANNELS 3 Zrotation Yrotation Xrotation
								End Site
								{
									OFFSET 0.000000 0.000000 0.000000
								}
							}
						}
					}
				}
			}
		}
	}
}
MOTION
Frames: 8
Frame Time: 0.033333
0.041667 0.214467 1.009677 -165.900811 -0.018486 95.662696 4.225887 1.290855 -6.856135 1.296065 -8.946200 -2.396713 -2.740508 8.783950 -2.247349 0.000000 -0.000000 0.000000 -1.616210 -3.804239 -4.379362 0.796401 -3.628135 2.718908 2.195924 -15.608504 -4.856903 0.000000 -0.000000 0.000000 -1.571605 2.523955 6.570754 2.230266 -0.388385 -3.970314 -0.551331 -0.380540 -0.935295 -3.162922 -8.553393 -9.142187 4.321478 -3.664581 -17.101749 -16.760166 21.314082 -4.685915 -57.641045 3.750712 22.235491 14.958539 -50.680207 -28.986584 17.196121 9.179510 -49.665677 19.339971 -18.035242 -9.119429 50.371673 -4.040029 9.622778 -18.269580 47.634235 -41.786302 -28.382372 -9.915676 -46.522802 
0.039404 0.217216 1.009053 -166.058354 -0.063472 95.388777 4.040164 1.494553 -6.188084 1.358910 -9.113265 -2.629766 -2.727058 8.791893 -2.512258 0.000000 -0.000000 0.000000 -1.784403 -3.807035 -4.186397 0.710908 -3.586836 3.315420 2.283793 -15.428250 -5.234006 0.000000 -0.000000 0.000000 -1.628893 2.182138 5.494822 2.492965 -0.891743 -3.096722 -0.433396 -0.452524 -1.501952 -3.794160 -8.152537 -7.467611 4.076276 -3.002505 -16.547554 -16.894818 20.253513 -4.689117 -55.410814 2.210148 21.076604 18.027570 -51.286850 -31.910280 17.485426 8.317782 -48.507638 19.125884 -17.485084 -9.190373 48.435901 -3.674622 8.389930 -21.072198 47.446765 -44.322155 -28.766971 -9.068723 -45.411005 
0.037644 0.220001 1.008467 -166.813721 -0.135243 95.214781 3.842177 1.839695 -5.616062 1.352732 -9.021463 -2.653514 -2.651510 8.954750 -2.864010 0.000000 -0.000000 0.000000 -2.046638 -3.877478 -4.179024 0.738691 -3.150526 3.878179 2.384515 -15.089871 -5.594007 0.000000 -0.000000 0.000000 -1.742057 2.125361 4.500030 2.657981 -1.305303 -2.341766 -0.288090 -0.547716 -2.336511 -4.397963 -7.488500 -5.820743 3.789439 -1.936086 -15.646302 -17.006450 18.453543 -4.446470 -52.744208 0.509555 19.806297 22.014757 -51.856714 -35.747792 18.722897 8.408117 -47.232888 19.022954 -16.402402 -8.947944 46.090015 -3.284278 7.027038 -25.749160 48.340918 -48.108777 -30.483075 -8.570220 -43.626857 
0.036712 0.221798 1.007860 -167.666060 -0.082575 94.797109 3.865503 1.928197 -4.889586 1.333472 -8.675092 -2.534851 -2.598928 9.177163 -3.241183 0.000000 -0.000000 0.000000 -2.162171 -3.898949 -3.876555 0.736307 -2.712819 4.213453 2.520599 -14.683139 -5.879611 0.000000 -0.000000 0.000000 -1.528608 2.171054 3.723470 2.737938 -1.684587 -1.531007 -0.187012 -0.549698 -3.076412 -5.263274 -6.733858 -4.162153 3.476887 -0.924169 -14.601313 -17.348959 15.871684 -4.679921 -49.874909 -1.890156 18.792228 25.208968 -51.922849 -38.831888 20.849080 8.610085 -45.861286 18.499324 -15.211315 -8.389584 44.093228 -3.070375 5.433591 -31.638628 51.991125 -52.692927 -33.503833 -7.846589 -41.488831 
0.036008 0.222913 1.007946 -168.680810 -0.116462 94.164355 3.810930 2.006199 -4.018097 1.283303 -8.291274 -2.251789 -2.519773 9.331667 -3.700878 0.000000 -0.000000 0.000000 -2.391157 -3.815186 -3.421375 0.725340 -2.312699 4.623689 2.786231 -14.122999 -6.178028 0.000000 -0.000000 0.000000 -1.347119 2.029477 3.404015 2.747522 -2.224943 -0.923967 -0.200782 -0.561259 -3.754702 -5.851702 -5.669432 -3.008550 2.933475 0.181552 -13.081165 -17.253708 12.839257 -4.383663 -47.402996 -4.304516 17.759059 28.006763 -52.439856 -40.005647 22.046376 7.526582 -45.206927 17.884428 -13.419739 -7.565262 43.058944 -2.417681 4.323915 -40.313474 56.826500 -58.833176 -35.262455 -6.593735 -39.965105 
0.036057 0.222794 1.007955 -169.909406 -0.092048 93.768126 3.810550 1.994522 -3.512999 1.270937 -7.336571 -1.893420 -2.346250 9.240970 -3.981683 0.000000 -0.000000 0.000000 -2.542840 -3.614222 -3.491105 0.716123 -2.209600 5.291616 3.057748 -13.138885 -6.428380 0.000000 -0.000000 0.000000 -1.264106 1.868585 3.187358 2.766709 -2.751039 -0.684011 -0.151955 -0.628971 -4.371906 -6.117266 -3.912891 -1.773798 2.324146 1.445496 -11.473444 -16.668137 9.748558 -4.185193 -45.894242 -6.766390 17.666380 30.249072 -53.739527 -40.120927 23.278203 6.217896 -43.228145 17.297303 -11.228166 -6.774976 42.450171 -1.266931 4.650303 -51.630330 61.802083 -66.319452 -35.846698 -4.539139 -38.825703 
0.036461 0.221429 1.008314 -171.220653 -0.092596 93.815090 3.712304 2.003170 -3.559459 1.366887 -6.137516 -1.575509 -2.120414 9.140535 -4.105463 0.000000 -0.000000 0.000000 -2.707779 -3.320152 -4.089726 0.727481 -2.191527 5.846949 3.421367 -12.063058 -6.461358 0.000000 -0.000000 0.000000 -1.488068 1.683320 2.687605 3.018258 -3.274044 -0.416100 -0.092324 -0.476651 -5.224262 -6.561303 -2.257240 -0.499037 2.212637 2.474773 -9.802187 -16.078575 6.916787 -4.393604 -43.935681 -9.424276 18.502458 27.901690 -56.650593 -35.266691 23.140183 3.189466 -41.655490 16.940736 -9.102369 -6.312799 41.721925 0.553359 5.774549 -62.698306 66.980549 -73.898125 -36.306567 -1.326450 -36.308370 
0.036997 0.220300 1.008365 -172.680933 -0.056262 93.861814 3.678034 2.315420 -3.469404 1.412310 -5.097139 -1.477661 -2.106399 8.978954 -4.243008 0.000000 -0.000000 0.000000 -2.834500 -2.884249 -4.709535 0.764946 -2.187633 6.413551 3.752774 -10.985409 -6.418018 0.000000 -0.000000 0.000000 -1.900979 1.615827 2.026620 3.411925 -3.691382 0.093205 0.110017 -0.360023 -6.026451 -7.174446 -0.685793 0.593192 2.209200 3.840835 -7.999460 -15.093687 3.795526 -4.346952 -43.051398 -12.358759 20.069608 23.113659 -59.988928 -28.478974 20.657341 -0.338139 -42.489139 16.459376 -6.666376 -5.923598 40.597105 2.558121 7.640063 -74.009680 72.311551 -82.383062 -34.207001 1.961561 -35.793842 
